# xmcd CD database file
#
# Track frame offsets:
#	150
#	25447
#	52639
#	88636
#	125450
#	136604
#	170680
#	184978
#	212350
#	238735
#	273939
#
# Disc length: 3914 seconds
#
# Revision: 0
# Processed by: cddbd v1.4PL0 Copyright (c) Steve Scherf et al.
# Submitted via: CDex 1.50beta10
#
DISCID=8f0f480b
DTITLE=Roger Kellaway - Roger Kellaway
DYEAR=1999
DGENRE=Jazz
TTITLE0=Star Eyes
TTITLE1=Emily
TTITLE2=How Deep Is The Ocean
TTITLE3=Creole Love Call
TTITLE4=Doe Eyes
TTITLE5=Stella By Starlight
TTITLE6=Moonrise
TTITLE7=Soaring
TTITLE8=Have You Met Miss Jones?
TTITLE9=My One And Only Love
TTITLE10=In My Highest Place
EXTD=YEAR: 1999
EXTT0=
EXTT1=
EXTT2=
EXTT3=
EXTT4=
EXTT5=
EXTT6=
EXTT7=
EXTT8=
EXTT9=
EXTT10=
PLAYORDER=
